<svg width="512" height="512" viewBox="0 0 512 512" fill="none" xmlns="http://www.w3.org/2000/svg">
<g clip-path="url(#clip0)">
<path d="M248.123 496.246C385.158 496.246 496.246 385.158 496.246 248.123C496.246 111.088 385.158 0 248.123 0C111.088 0 0 111.088 0 248.123C0 385.158 111.088 496.246 248.123 496.246Z" fill="#FFF500"/>
<path fill-rule="evenodd" clip-rule="evenodd" d="M253.042 523.224L273.719 340.086L211.885 363.323L165.805 508.258L112.242 491.913L145.325 388.332L44.8943 425.944L24.8081 374.744L166.593 321.575L279.627 -33.2804L314.679 -22.4496L317.633 -49.625L373.362 -43.7173L339.491 256.787L533.854 183.926L553.94 235.126L332.599 318.03L308.968 529.132L253.042 523.224ZM303.454 76.2088L233.35 296.566L280.611 278.843L303.454 76.4058V76.2088Z" fill="black"/>
</g>
<defs>
<clipPath id="clip0">
<rect width="512" height="512" fill="white"/>
</clipPath>
</defs>
</svg>
